<svg width="85" height="85" viewBox="0 0 85 85" fill="none" xmlns="http://www.w3.org/2000/svg">
<rect width="85" height="85" rx="15" fill="#FFFDEC"/>
<path d="M13.128 59.816C12.936 59.816 12.76 59.752 12.6 59.624C12.504 59.528 12.392 59.448 12.264 59.384C12.136 59.32 12.024 59.24 11.928 59.144C11.832 59.08 11.736 59.016 11.64 58.952C11.576 58.856 11.512 58.776 11.448 58.712C11.32 58.52 11.208 58.328 11.112 58.136C11.048 57.912 11.032 57.688 11.064 57.464C11.128 57.112 11.16 56.776 11.16 56.456C11.192 56.104 11.224 55.768 11.256 55.448C11.288 55.288 11.304 55.128 11.304 54.968C11.336 54.776 11.352 54.6 11.352 54.44C11.352 54.056 11.352 53.672 11.352 53.288C11.384 52.904 11.432 52.52 11.496 52.136V52.04C11.528 51.048 11.56 50.072 11.592 49.112C11.656 48.12 11.688 47.128 11.688 46.136C11.656 45.4 11.64 44.664 11.64 43.928C11.64 43.192 11.64 42.472 11.64 41.768C11.64 41.416 11.64 41.08 11.64 40.76C11.672 40.44 11.656 40.12 11.592 39.8C11.56 39.256 11.528 38.728 11.496 38.216C11.496 37.704 11.496 37.192 11.496 36.68C11.496 36.584 11.48 36.488 11.448 36.392C11.448 36.296 11.448 36.2 11.448 36.104C11.416 35.976 11.4 35.848 11.4 35.72C11.4 35.56 11.384 35.416 11.352 35.288C11.352 35.128 11.336 34.968 11.304 34.808C11.304 34.648 11.288 34.504 11.256 34.376V34.04C11.224 33.688 11.192 33.368 11.16 33.08C11.128 32.76 11.08 32.44 11.016 32.12C10.984 31.864 10.952 31.592 10.92 31.304C10.92 31.016 10.92 30.728 10.92 30.44C10.92 30.248 10.984 30.104 11.112 30.008C11.176 29.944 11.208 29.864 11.208 29.768C11.272 29.64 11.304 29.528 11.304 29.432C11.4 29.176 11.528 29.016 11.688 28.952C11.784 28.888 11.864 28.84 11.928 28.808C12.024 28.744 12.12 28.728 12.216 28.76C12.376 28.76 12.472 28.712 12.504 28.616C12.568 28.584 12.616 28.552 12.648 28.52C12.68 28.456 12.712 28.424 12.744 28.424C12.904 28.424 13.048 28.408 13.176 28.376C13.336 28.344 13.496 28.36 13.656 28.424C13.848 28.488 14.008 28.52 14.136 28.52C14.296 28.552 14.408 28.616 14.472 28.712C14.536 28.776 14.6 28.808 14.664 28.808C14.824 28.84 14.936 28.952 15 29.144C15.064 29.208 15.096 29.288 15.096 29.384C15.128 29.448 15.16 29.496 15.192 29.528C15.352 29.688 15.4 29.88 15.336 30.104C15.272 30.456 15.272 30.808 15.336 31.16C15.368 31.256 15.368 31.352 15.336 31.448C15.336 31.544 15.352 31.64 15.384 31.736C15.384 31.96 15.384 32.184 15.384 32.408C15.416 32.6 15.448 32.824 15.48 33.08C15.512 33.208 15.528 33.336 15.528 33.464C15.528 33.56 15.528 33.688 15.528 33.848C15.528 34.072 15.528 34.328 15.528 34.616C15.528 34.872 15.544 35.128 15.576 35.384C15.608 35.448 15.624 35.56 15.624 35.72C15.624 35.944 15.624 36.168 15.624 36.392C15.656 36.616 15.688 36.84 15.72 37.064C15.816 37.544 15.864 38.008 15.864 38.456C15.832 38.68 15.832 38.92 15.864 39.176C15.896 39.432 15.912 39.688 15.912 39.944C15.912 40.008 15.944 40.04 16.008 40.04C16.072 40.04 16.12 40.024 16.152 39.992C16.216 39.96 16.312 39.88 16.44 39.752L18.744 37.448C19.224 36.904 19.752 36.424 20.328 36.008C20.616 35.784 20.888 35.56 21.144 35.336C21.4 35.08 21.64 34.824 21.864 34.568C22.184 34.216 22.488 33.864 22.776 33.512C23.096 33.16 23.416 32.808 23.736 32.456C23.896 32.296 24.04 32.12 24.168 31.928C24.328 31.736 24.472 31.544 24.6 31.352C24.792 31.128 24.968 30.92 25.128 30.728C25.32 30.504 25.528 30.296 25.752 30.104C25.848 30.04 25.928 29.976 25.992 29.912C26.088 29.816 26.2 29.752 26.328 29.72C26.36 29.72 26.376 29.72 26.376 29.72C26.408 29.688 26.424 29.672 26.424 29.672C26.744 29.384 27.064 29.336 27.384 29.528C27.48 29.592 27.624 29.624 27.816 29.624C28.072 29.624 28.296 29.72 28.488 29.912C28.552 29.944 28.6 29.976 28.632 30.008C28.696 30.008 28.744 30.024 28.776 30.056H29.256C29.448 30.056 29.544 30.088 29.544 30.152C29.576 30.184 29.576 30.28 29.544 30.44C29.48 30.536 29.512 30.632 29.64 30.728C29.8 30.76 29.848 30.856 29.784 31.016C29.752 31.08 29.784 31.16 29.88 31.256C29.976 31.32 29.976 31.4 29.88 31.496C29.72 31.752 29.624 32.008 29.592 32.264C29.528 32.424 29.448 32.584 29.352 32.744C29.288 32.872 29.176 33.016 29.016 33.176C28.632 33.496 28.28 33.864 27.96 34.28C27.64 34.664 27.304 35.064 26.952 35.48L26.664 35.768C26.344 36.056 26.04 36.36 25.752 36.68C25.496 37 25.24 37.32 24.984 37.64C24.632 38.056 24.248 38.472 23.832 38.888C23.448 39.272 23.064 39.656 22.68 40.04C22.488 40.232 22.344 40.36 22.248 40.424C22.088 40.552 21.928 40.696 21.768 40.856C21.608 41.016 21.448 41.192 21.288 41.384C21.256 41.448 21.192 41.512 21.096 41.576C21.032 41.64 20.968 41.704 20.904 41.768C20.68 41.992 20.456 42.232 20.232 42.488C20.008 42.712 19.768 42.936 19.512 43.16C19.512 43.192 19.496 43.224 19.464 43.256C19.464 43.256 19.464 43.272 19.464 43.304C19.464 43.336 19.448 43.368 19.416 43.4C19.416 43.432 19.432 43.464 19.464 43.496C19.496 43.592 19.576 43.704 19.704 43.832L21.096 45.128C21.384 45.352 21.656 45.608 21.912 45.896C22.168 46.152 22.424 46.408 22.68 46.664L23.16 47.24C23.224 47.304 23.288 47.384 23.352 47.48C23.416 47.544 23.48 47.608 23.544 47.672C23.896 47.96 24.248 48.248 24.6 48.536C24.952 48.824 25.288 49.112 25.608 49.4L26.328 49.976C26.712 50.296 27.128 50.6 27.576 50.888C28.024 51.176 28.456 51.448 28.872 51.704C29.096 51.832 29.304 51.96 29.496 52.088C29.72 52.184 29.944 52.28 30.168 52.376C30.584 52.568 30.92 52.904 31.176 53.384C31.208 53.416 31.24 53.48 31.272 53.576C31.304 53.64 31.336 53.704 31.368 53.768C31.528 54.12 31.592 54.456 31.56 54.776C31.56 55.032 31.528 55.208 31.464 55.304L31.32 55.688C31.288 55.816 31.224 55.96 31.128 56.12C31.064 56.248 30.952 56.36 30.792 56.456C30.728 56.488 30.664 56.568 30.6 56.696C30.472 56.824 30.36 56.888 30.264 56.888C30.104 56.92 29.928 56.952 29.736 56.984C29.576 57.016 29.416 57.048 29.256 57.08C29.128 57.112 29 57.128 28.872 57.128C28.744 57.128 28.616 57.112 28.488 57.08C28.456 57.048 28.408 57.032 28.344 57.032C28.216 57 28.088 56.968 27.96 56.936C27.864 56.904 27.768 56.872 27.672 56.84C27.576 56.776 27.48 56.712 27.384 56.648C27.32 56.552 27.256 56.472 27.192 56.408C27.128 56.344 27.048 56.28 26.952 56.216C26.856 56.152 26.76 56.104 26.664 56.072L25.944 55.64C25.912 55.576 25.848 55.528 25.752 55.496C25.688 55.432 25.624 55.384 25.56 55.352C25.432 55.288 25.352 55.24 25.32 55.208C25.192 55.048 25.032 54.92 24.84 54.824C24.68 54.728 24.52 54.616 24.36 54.488C24.104 54.264 23.832 54.056 23.544 53.864C23.288 53.64 23.032 53.416 22.776 53.192C22.232 52.712 21.688 52.232 21.144 51.752C20.632 51.272 20.12 50.776 19.608 50.264C19.224 49.88 18.84 49.496 18.456 49.112C18.072 48.728 17.656 48.344 17.208 47.96C17.08 47.864 16.952 47.768 16.824 47.672C16.728 47.576 16.6 47.48 16.44 47.384C16.408 47.32 16.36 47.304 16.296 47.336C16.264 47.368 16.248 47.416 16.248 47.48C16.216 47.512 16.2 47.592 16.2 47.72V52.904C16.2 53.224 16.2 53.56 16.2 53.912C16.2 54.232 16.168 54.568 16.104 54.92V55.64C16.072 55.864 16.056 56.088 16.056 56.312C16.088 56.536 16.088 56.776 16.056 57.032V57.752C16.024 57.848 15.992 57.944 15.96 58.04C15.928 58.136 15.88 58.232 15.816 58.328C15.72 58.424 15.64 58.536 15.576 58.664C15.512 58.76 15.448 58.856 15.384 58.952C15.32 59.016 15.256 59.048 15.192 59.048C15.064 59.08 14.936 59.144 14.808 59.24C14.712 59.336 14.584 59.416 14.424 59.48C14.2 59.672 13.928 59.768 13.608 59.768C13.544 59.736 13.464 59.736 13.368 59.768C13.304 59.8 13.224 59.816 13.128 59.816ZM28.0403 59.96C27.7203 59.928 27.4003 59.88 27.0803 59.816C26.7923 59.784 26.5043 59.704 26.2162 59.576L25.0163 59.144C24.6003 58.984 24.2162 58.808 23.8643 58.616C23.5122 58.392 23.1602 58.168 22.8083 57.944C22.6483 57.784 22.4883 57.64 22.3282 57.512C22.1683 57.352 22.0083 57.208 21.8483 57.08C21.5922 56.824 21.3362 56.568 21.0802 56.312C20.8242 56.024 20.5842 55.72 20.3602 55.4L19.2083 53.624C18.9202 53.176 18.6642 52.712 18.4402 52.232C18.2162 51.72 18.0242 51.208 17.8642 50.696C17.5122 49.736 17.3362 48.792 17.3362 47.864V47.096C17.3362 46.296 17.3842 45.512 17.4802 44.744C17.5442 44.104 17.6882 43.528 17.9122 43.016C18.0402 42.696 18.1522 42.376 18.2482 42.056C18.3442 41.736 18.4562 41.432 18.5842 41.144L18.7282 40.808C18.7922 40.392 18.9362 40.024 19.1602 39.704C19.3842 39.352 19.5762 39.016 19.7363 38.696C19.8643 38.44 20.0082 38.216 20.1682 38.024C20.3282 37.8 20.4722 37.576 20.6003 37.352C20.6642 37.256 20.7442 37.176 20.8403 37.112C20.9363 37.016 21.0163 36.92 21.0802 36.824C21.1443 36.76 21.1923 36.68 21.2243 36.584C21.2883 36.456 21.3363 36.344 21.3683 36.248C21.4323 36.152 21.5443 36.024 21.7043 35.864C21.8963 35.768 22.0722 35.544 22.2322 35.192C22.2962 35.064 22.3602 34.968 22.4243 34.904C22.6163 34.744 22.7763 34.552 22.9043 34.328C23.0643 34.104 23.2403 33.896 23.4323 33.704C23.5603 33.576 23.6243 33.4 23.6243 33.176C23.6243 33.016 23.6243 32.872 23.6243 32.744C23.6562 32.584 23.6562 32.44 23.6243 32.312C23.5923 32.152 23.6403 32.008 23.7682 31.88C23.8323 31.816 23.8803 31.736 23.9123 31.64C23.9443 31.544 23.9763 31.448 24.0083 31.352C24.1043 31.032 24.3602 30.76 24.7762 30.536C24.8403 30.472 24.9203 30.44 25.0163 30.44C25.1443 30.408 25.2563 30.376 25.3523 30.344C25.5763 30.248 25.8323 30.232 26.1203 30.296C26.2483 30.328 26.3603 30.344 26.4563 30.344C26.5523 30.312 26.6483 30.28 26.7443 30.248C26.8723 30.184 26.9843 30.136 27.0803 30.104C27.2083 30.072 27.3203 30.04 27.4163 30.008C27.8643 29.848 28.3283 29.864 28.8083 30.056C29.3203 30.248 29.6883 30.584 29.9123 31.064C29.9763 31.224 30.0402 31.384 30.1042 31.544C30.1683 31.704 30.2163 31.864 30.2483 32.024C30.3123 32.376 30.2963 32.68 30.2003 32.936C30.1363 33.064 30.1042 33.144 30.1042 33.176C30.0723 33.304 30.1043 33.416 30.2003 33.512C30.2643 33.608 30.3443 33.688 30.4402 33.752C30.7923 34.072 31.1283 34.392 31.4482 34.712C31.7683 35 32.0723 35.32 32.3603 35.672C32.6163 35.928 32.8243 36.2 32.9843 36.488C33.1763 36.744 33.3523 37.032 33.5123 37.352C33.5763 37.512 33.6563 37.688 33.7523 37.88C33.8483 38.04 33.9443 38.2 34.0403 38.36C34.2003 38.648 34.3283 38.952 34.4243 39.272C34.5523 39.592 34.6803 39.912 34.8083 40.232V40.28C34.8723 40.504 34.9203 40.744 34.9523 41C35.0163 41.224 35.1123 41.464 35.2403 41.72C35.3363 41.944 35.4163 42.184 35.4803 42.44C35.5443 42.664 35.6083 42.904 35.6723 43.16C35.7363 43.448 35.8003 43.736 35.8643 44.024C35.9603 44.312 36.0243 44.6 36.0563 44.888C36.0883 45.016 36.1203 45.144 36.1523 45.272C36.1843 45.368 36.2163 45.48 36.2483 45.608C36.3123 45.896 36.3763 46.184 36.4403 46.472C36.5043 46.76 36.5523 47.048 36.5843 47.336L36.7283 47.672C36.7923 47.864 36.8563 48.12 36.9203 48.44C37.0163 48.856 37.0643 49.272 37.0643 49.688C37.0963 50.104 37.0963 50.536 37.0643 50.984C37.0643 51.208 37.0483 51.384 37.0163 51.512C36.8243 52.184 36.5843 52.872 36.2963 53.576C36.1683 53.8 36.0403 54.024 35.9123 54.248C35.7843 54.44 35.6563 54.648 35.5283 54.872L35.0963 55.544C34.9363 55.832 34.7603 56.088 34.5683 56.312C34.2483 56.824 33.8643 57.272 33.4163 57.656C32.9683 58.04 32.4883 58.408 31.9763 58.76C30.8563 59.624 29.5443 60.024 28.0403 59.96ZM27.8483 55.208C28.5203 55.208 29.0963 55.016 29.5763 54.632C29.7363 54.472 29.8963 54.328 30.0563 54.2C30.2483 54.04 30.4083 53.88 30.5363 53.72C31.1442 53.048 31.6242 52.344 31.9763 51.608L32.1203 51.128C32.1843 50.552 32.1843 49.976 32.1203 49.4L31.8323 47.816C31.7363 47.4 31.6563 47 31.5923 46.616C31.5283 46.2 31.4323 45.8 31.3043 45.416C31.2083 45.192 31.1763 45.016 31.2083 44.888C31.2403 44.728 31.2403 44.568 31.2083 44.408C31.1763 44.248 31.1283 44.088 31.0643 43.928C30.9683 43.512 30.8563 43.096 30.7283 42.68C30.6003 42.264 30.4723 41.848 30.3443 41.432C30.3123 41.336 30.2803 41.24 30.2483 41.144C30.2163 41.048 30.1843 40.952 30.1523 40.856C29.9283 40.408 29.6883 39.976 29.4323 39.56C29.1763 39.144 28.8883 38.76 28.5682 38.408C28.4082 38.216 28.2323 38.04 28.0403 37.88C27.8483 37.688 27.6563 37.512 27.4643 37.352C27.4323 37.288 27.3843 37.256 27.3203 37.256C27.2883 37.224 27.2403 37.192 27.1763 37.16C27.0803 37.032 26.9523 37.048 26.7923 37.208C26.6323 37.368 26.4563 37.544 26.2643 37.736C26.1043 37.928 25.9443 38.12 25.7843 38.312C25.6243 38.536 25.4483 38.76 25.2563 38.984C25.0963 39.208 24.9363 39.432 24.7762 39.656C24.5522 39.944 24.3442 40.232 24.1523 40.52C23.9603 40.808 23.7683 41.096 23.5763 41.384C22.9043 42.472 22.3763 43.672 21.9922 44.984C21.9282 45.176 21.8962 45.32 21.8962 45.416C21.8642 45.64 21.8322 45.864 21.8002 46.088C21.8002 46.312 21.8002 46.552 21.8002 46.808V47.192C21.8322 47.288 21.8483 47.384 21.8483 47.48C21.8483 47.576 21.8642 47.672 21.8962 47.768C21.8962 48.152 21.9922 48.568 22.1843 49.016C22.4403 49.656 22.7283 50.28 23.0482 50.888C23.3683 51.496 23.7363 52.072 24.1523 52.616C24.2483 52.744 24.3443 52.872 24.4402 53C24.5683 53.128 24.6803 53.256 24.7762 53.384C25.0642 53.704 25.3683 53.992 25.6883 54.248C26.0403 54.504 26.3923 54.728 26.7443 54.92C27.1283 55.112 27.4963 55.208 27.8483 55.208ZM51.1436 59.144C50.8876 59.24 50.5996 59.208 50.2796 59.048L49.3196 58.616C49.1596 58.552 49.0316 58.408 48.9356 58.184L48.7916 57.896C48.7276 57.736 48.6476 57.624 48.5516 57.56C48.3916 57.432 48.2796 57.208 48.2156 56.888C48.1516 56.568 48.1036 56.248 48.0716 55.928C48.0396 55.608 48.0076 55.288 47.9756 54.968C47.9436 54.712 47.9276 54.456 47.9276 54.2C47.9276 53.944 47.9276 53.704 47.9276 53.48L47.9756 53.144C48.0396 52.984 48.0716 52.824 48.0716 52.664C48.0716 52.504 48.0716 52.36 48.0716 52.232V43.496C48.1356 43.048 48.1676 42.6 48.1676 42.152C48.1676 41.672 48.1676 41.208 48.1676 40.76C48.1996 40.312 48.2156 39.88 48.2156 39.464C48.2156 39.016 48.1836 38.584 48.1196 38.168C48.0876 38.008 48.0716 37.832 48.0716 37.64C48.0716 37.448 48.0716 37.256 48.0716 37.064C48.0716 36.776 48.0716 36.488 48.0716 36.2C48.0716 35.912 48.0396 35.624 47.9756 35.336V35.192C47.9756 34.744 47.9436 34.312 47.8796 33.896C47.8476 33.448 47.8156 33.016 47.7836 32.6C47.7516 32.344 47.7196 32.104 47.6876 31.88C47.6556 31.656 47.6076 31.432 47.5436 31.208C47.5116 31.08 47.4956 30.952 47.4956 30.824C47.4956 30.696 47.4956 30.568 47.4956 30.44C47.4956 30.216 47.5276 30.008 47.5916 29.816C47.6556 29.592 47.7196 29.384 47.7836 29.192C47.8156 29.128 47.8956 29.032 48.0236 28.904C48.0876 28.84 48.1516 28.792 48.2156 28.76C48.2796 28.728 48.3276 28.696 48.3596 28.664C48.5516 28.408 48.8076 28.296 49.1276 28.328C49.1916 28.36 49.2876 28.344 49.4156 28.28C49.5756 28.152 49.7196 28.136 49.8476 28.232C49.9436 28.296 50.1036 28.296 50.3276 28.232C50.4236 28.232 50.5036 28.264 50.5676 28.328C50.6636 28.456 50.7916 28.552 50.9516 28.616C51.1116 28.68 51.2236 28.776 51.2876 28.904C51.3836 29 51.4796 29.096 51.5756 29.192C51.6396 29.288 51.7036 29.384 51.7676 29.48C51.8636 29.544 51.9116 29.64 51.9116 29.768C51.9436 29.896 51.9436 30.024 51.9116 30.152C51.9116 30.248 51.9116 30.36 51.9116 30.488C51.9116 30.776 51.9276 31.08 51.9596 31.4C52.0236 31.688 52.0716 31.976 52.1036 32.264C52.1676 32.584 52.2156 32.92 52.2476 33.272C52.2796 33.592 52.3116 33.928 52.3436 34.28V34.76C52.4076 34.984 52.4396 35.208 52.4396 35.432C52.4396 35.656 52.4556 35.88 52.4876 36.104V36.152C52.5196 36.536 52.5516 36.92 52.5836 37.304C52.6156 37.688 52.6476 38.072 52.6796 38.456C52.7116 38.616 52.7276 38.792 52.7276 38.984C52.7276 39.144 52.7276 39.304 52.7276 39.464V52.232C52.7276 52.52 52.7436 52.808 52.7756 53.096C52.8396 53.384 52.8876 53.656 52.9196 53.912C52.9196 54.072 53.0156 54.152 53.2076 54.152C53.4956 54.216 53.7676 54.216 54.0236 54.152C54.3756 54.088 54.7116 54.056 55.0316 54.056C55.3836 54.056 55.7356 54.056 56.0876 54.056C56.4396 54.056 56.7756 54.056 57.0956 54.056C57.4476 54.024 57.7836 53.992 58.1036 53.96H58.6316C58.8876 53.992 59.1116 54.024 59.3036 54.056C59.5276 54.056 59.7516 54.056 59.9756 54.056C60.3276 54.056 60.6796 54.072 61.0316 54.104C61.4156 54.104 61.7836 54.12 62.1356 54.152C62.3916 54.184 62.6476 54.2 62.9036 54.2C63.1916 54.2 63.4796 54.2 63.7676 54.2H64.0076C64.6476 54.168 65.2236 54.328 65.7356 54.68C65.9596 54.776 66.1196 54.936 66.2156 55.16C66.2796 55.288 66.3276 55.416 66.3596 55.544C66.4236 55.64 66.4716 55.768 66.5036 55.928C66.5356 56.056 66.5516 56.184 66.5516 56.312C66.5836 56.408 66.6156 56.52 66.6476 56.648C66.7436 56.936 66.7116 57.256 66.5516 57.608C66.5196 57.704 66.4876 57.8 66.4556 57.896C66.4236 57.992 66.3756 58.088 66.3116 58.184C66.2476 58.28 66.1676 58.36 66.0716 58.424C66.0716 58.424 66.0076 58.456 65.8796 58.52C65.6236 58.744 65.3356 58.888 65.0156 58.952C64.7276 59.016 64.4076 59.08 64.0556 59.144L63.5756 59.096C63.0956 58.936 62.6156 58.84 62.1356 58.808C62.0076 58.776 61.8636 58.76 61.7036 58.76C61.5436 58.728 61.3836 58.712 61.2236 58.712C60.9996 58.712 60.7756 58.712 60.5516 58.712C60.3276 58.68 60.0876 58.648 59.8316 58.616L59.3516 58.568C59.0636 58.6 58.7756 58.616 58.4876 58.616C58.1996 58.584 57.9116 58.584 57.6236 58.616C57.4956 58.616 57.3676 58.616 57.2396 58.616C57.1116 58.584 56.9836 58.568 56.8556 58.568C56.5996 58.568 56.3436 58.568 56.0876 58.568C55.8636 58.568 55.6236 58.6 55.3676 58.664C55.2396 58.696 55.0796 58.728 54.8876 58.76C54.7276 58.76 54.5676 58.76 54.4076 58.76C53.9276 58.792 53.4476 58.84 52.9676 58.904C52.4876 58.936 52.0236 59 51.5756 59.096C51.4796 59.128 51.3356 59.144 51.1436 59.144ZM72.8486 62.504C72.5606 62.504 72.3046 62.392 72.0806 62.168C72.0166 62.072 71.9526 61.976 71.8886 61.88C71.8246 61.784 71.7606 61.688 71.6966 61.592C71.4086 60.92 71.2646 60.216 71.2646 59.48L71.1206 58.328C71.0246 57.88 70.9446 57.432 70.8806 56.984C70.8166 56.536 70.7046 56.104 70.5446 55.688L70.2566 54.872C70.2566 54.808 70.2406 54.744 70.2086 54.68C70.2086 54.616 70.1926 54.552 70.1606 54.488L69.4406 51.944C69.4086 51.88 69.3766 51.8 69.3446 51.704C69.3446 51.608 69.3126 51.528 69.2486 51.464C69.1526 51.272 69.0726 51.08 69.0086 50.888C68.9766 50.664 68.9286 50.44 68.8646 50.216C68.8326 50.056 68.8006 49.912 68.7686 49.784C68.7366 49.624 68.6886 49.464 68.6246 49.304C68.5606 49.112 68.4966 49 68.4326 48.968C68.3686 48.904 68.2246 48.904 68.0006 48.968C67.8406 49 67.6646 49.032 67.4726 49.064C67.3126 49.064 67.1526 49.096 66.9926 49.16C66.8646 49.192 66.7046 49.224 66.5126 49.256C66.3526 49.256 66.1926 49.272 66.0326 49.304L65.3606 49.448C65.2006 49.48 65.0246 49.528 64.8326 49.592C64.6726 49.624 64.5126 49.64 64.3526 49.64L63.4886 49.784C63.2326 49.848 62.9606 49.912 62.6726 49.976C62.3846 50.04 62.1126 50.104 61.8566 50.168C61.0886 50.36 60.3206 50.504 59.5526 50.6C59.2966 50.664 59.1526 50.776 59.1206 50.936C59.0886 50.936 59.0726 50.952 59.0726 50.984C58.8806 51.496 58.6566 52.008 58.4006 52.52C58.1766 53 57.9366 53.496 57.6806 54.008C57.6166 54.136 57.5526 54.264 57.4886 54.392C57.4566 54.488 57.4086 54.6 57.3446 54.728C57.3126 54.792 57.2806 54.872 57.2486 54.968C57.2166 55.032 57.1846 55.096 57.1526 55.16C56.9606 55.384 56.8646 55.656 56.8646 55.976C56.8326 56.168 56.7686 56.36 56.6726 56.552C56.5766 56.712 56.4806 56.872 56.3846 57.032C56.3526 57.128 56.2886 57.176 56.1926 57.176C56.0646 57.208 55.9366 57.256 55.8086 57.32C55.6806 57.384 55.5366 57.448 55.3766 57.512C55.2806 57.544 55.1846 57.544 55.0886 57.512C55.0246 57.48 54.9446 57.448 54.8486 57.416C54.7846 57.352 54.7206 57.32 54.6566 57.32C54.3046 57.288 54.0486 57.08 53.8886 56.696C53.6326 56.184 53.4566 55.672 53.3606 55.16C53.3286 55.032 53.3286 54.92 53.3606 54.824C53.4246 54.728 53.4726 54.632 53.5046 54.536C53.6966 54.408 53.8086 54.264 53.8406 54.104V54.056C53.8406 53.64 53.9206 53.256 54.0806 52.904C54.2726 52.52 54.4326 52.152 54.5606 51.8C54.6246 51.608 54.7046 51.416 54.8006 51.224C54.8966 51.032 54.9926 50.84 55.0886 50.648C55.2166 50.424 55.3126 50.216 55.3766 50.024C55.4726 49.8 55.5526 49.576 55.6166 49.352C55.7126 49.096 55.7126 48.856 55.6166 48.632C55.5526 48.44 55.5206 48.264 55.5206 48.104C55.5206 47.912 55.5366 47.72 55.5686 47.528C55.5686 47.176 55.6966 46.872 55.9526 46.616C56.0806 46.456 56.2086 46.328 56.3366 46.232C56.4966 46.104 56.6406 45.976 56.7686 45.848C57.0566 45.56 57.2806 45.176 57.4406 44.696C57.5686 44.28 57.6646 43.864 57.7286 43.448C57.8246 43 57.9206 42.568 58.0166 42.152C58.0806 41.736 58.1446 41.336 58.2086 40.952C58.3046 40.536 58.4006 40.136 58.4966 39.752C58.5286 39.592 58.5606 39.448 58.5926 39.32C58.6566 39.16 58.7046 39.016 58.7366 38.888C58.8326 38.632 58.9286 38.392 59.0246 38.168C59.1206 37.912 59.1846 37.656 59.2166 37.4C59.2806 37.272 59.2806 37.16 59.2166 37.064C59.1846 36.904 59.1846 36.76 59.2166 36.632C59.2806 36.504 59.3286 36.376 59.3606 36.248C59.4566 36.024 59.5206 35.8 59.5526 35.576C59.6166 35.352 59.6966 35.128 59.7926 34.904C59.9526 34.488 60.0806 34.152 60.1766 33.896C60.3046 33.608 60.4166 33.288 60.5126 32.936C60.5766 32.744 60.6406 32.568 60.7046 32.408C60.8006 32.216 60.8646 32.024 60.8966 31.832C60.9926 31.544 61.0726 31.256 61.1366 30.968C61.2006 30.648 61.2326 30.344 61.2326 30.056C61.2966 29.8 61.3606 29.624 61.4246 29.528C61.5846 29.208 61.7766 28.936 62.0006 28.712C62.2566 28.488 62.4966 28.264 62.7206 28.04C62.8806 27.944 63.0406 27.88 63.2006 27.848C63.3606 27.784 63.5206 27.8 63.6806 27.896C63.8086 27.96 63.8886 27.992 63.9206 27.992C64.2086 27.96 64.4486 28.024 64.6406 28.184C64.8326 28.344 64.9926 28.536 65.1206 28.76C65.1846 28.824 65.2326 28.904 65.2646 29C65.2966 29.096 65.3286 29.176 65.3606 29.24C65.5206 29.496 65.6006 29.752 65.6006 30.008C65.6006 30.136 65.6166 30.28 65.6486 30.44C65.6806 30.568 65.7126 30.712 65.7446 30.872C65.8406 31.064 65.9846 31.16 66.1766 31.16C66.2086 31.128 66.2406 31.128 66.2726 31.16C66.3046 31.192 66.3206 31.224 66.3206 31.256C66.4806 31.448 66.5286 31.656 66.4646 31.88C66.4006 32.136 66.3846 32.392 66.4166 32.648C66.4806 32.872 66.5446 33.112 66.6086 33.368C66.7366 33.688 66.8646 34.008 66.9926 34.328C67.1206 34.648 67.2486 34.968 67.3766 35.288C67.5366 35.64 67.6966 35.992 67.8566 36.344C68.0166 36.696 68.1606 37.048 68.2886 37.4C68.4486 37.848 68.6086 38.296 68.7686 38.744C68.9606 39.192 69.1686 39.64 69.3926 40.088L69.5366 40.616C69.5686 40.744 69.6006 40.872 69.6326 41C69.6966 41.128 69.7446 41.256 69.7766 41.384C69.8406 41.48 69.8886 41.576 69.9206 41.672C69.9846 41.768 70.0486 41.848 70.1126 41.912C70.2726 42.136 70.3686 42.376 70.4006 42.632C70.4966 42.952 70.6406 43.24 70.8326 43.496C70.8966 43.592 70.9926 43.64 71.1206 43.64C71.6006 43.576 72.0806 43.528 72.5606 43.496C73.0406 43.432 73.5206 43.336 74.0006 43.208C74.3526 43.112 74.6886 43.064 75.0086 43.064C75.6166 43.064 76.1766 43.272 76.6886 43.688C77.2966 44.168 77.6166 44.776 77.6486 45.512C77.6486 45.672 77.6646 45.8 77.6966 45.896C77.6966 46.12 77.6326 46.296 77.5046 46.424C77.4726 46.52 77.4086 46.616 77.3126 46.712C77.2486 46.808 77.1846 46.904 77.1206 47C77.0566 47.128 76.9926 47.224 76.9286 47.288L76.6406 47.528C76.6086 47.592 76.5606 47.672 76.4966 47.768C76.4326 47.832 76.3526 47.88 76.2566 47.912C76.1286 47.944 76.0006 47.992 75.8726 48.056C75.7446 48.088 75.6006 48.104 75.4406 48.104C74.8646 48.168 74.3526 48.152 73.9046 48.056H73.1366C73.0726 48.056 72.9766 48.088 72.8486 48.152C72.7206 48.216 72.6566 48.296 72.6566 48.392V48.584C72.7526 48.872 72.8166 49.176 72.8486 49.496C72.9126 49.784 73.0086 50.056 73.1366 50.312C73.1366 50.44 73.1686 50.568 73.2326 50.696C73.3926 50.984 73.5206 51.288 73.6166 51.608C73.7126 51.896 73.7926 52.2 73.8566 52.52C73.8566 52.584 73.8886 52.712 73.9526 52.904C74.0486 53.128 74.1286 53.368 74.1926 53.624C74.2566 53.848 74.3046 54.088 74.3366 54.344C74.3366 54.536 74.3846 54.712 74.4806 54.872C74.6086 55.16 74.7046 55.448 74.7686 55.736C74.8326 56.024 74.8806 56.328 74.9126 56.648C74.9446 56.68 74.9606 56.744 74.9606 56.84C74.9606 56.904 74.9766 56.968 75.0086 57.032C75.1686 57.384 75.2806 57.768 75.3446 58.184C75.4086 58.568 75.4886 58.952 75.5846 59.336C75.6486 59.528 75.6806 59.72 75.6806 59.912C75.7126 60.136 75.7286 60.36 75.7286 60.584C75.7286 60.744 75.6806 60.92 75.5846 61.112C75.4886 61.208 75.4406 61.256 75.4406 61.256C75.2486 61.288 75.1366 61.4 75.1046 61.592L74.9606 61.88C74.8966 62.008 74.8006 62.088 74.6726 62.12C74.5446 62.12 74.4326 62.168 74.3366 62.264C74.2086 62.392 74.0326 62.456 73.8086 62.456C73.6806 62.456 73.5206 62.456 73.3286 62.456C73.1686 62.456 73.0086 62.472 72.8486 62.504ZM61.2806 45.08C61.4726 45.048 61.6646 45.016 61.8566 44.984C62.0806 44.952 62.3206 44.92 62.5766 44.888C62.7366 44.856 62.9446 44.824 63.2006 44.792C63.4566 44.76 63.6966 44.728 63.9206 44.696C64.1446 44.632 64.3686 44.6 64.5926 44.6C64.8166 44.568 65.0406 44.536 65.2646 44.504C65.4566 44.44 65.6486 44.408 65.8406 44.408C66.0326 44.376 66.2246 44.344 66.4166 44.312C66.7046 44.248 66.8166 44.088 66.7526 43.832C66.7206 43.576 66.6566 43.32 66.5606 43.064C66.4966 42.776 66.3526 42.536 66.1286 42.344C66.0646 42.28 66.0326 42.184 66.0326 42.056V41.912C65.9686 41.656 65.8886 41.416 65.7926 41.192C65.7286 40.936 65.6486 40.696 65.5526 40.472C65.4886 40.216 65.4086 39.992 65.3126 39.8C65.2486 39.576 65.1686 39.352 65.0726 39.128L64.4966 37.4C64.4006 37.176 64.3046 36.952 64.2086 36.728C64.1446 36.504 64.0806 36.28 64.0166 36.056L63.8726 35.864H63.7286L63.6326 36.008C63.4726 36.488 63.2806 36.968 63.0566 37.448C62.8646 37.928 62.6886 38.44 62.5286 38.984C62.5286 39.048 62.5126 39.128 62.4806 39.224C62.4486 39.32 62.4166 39.416 62.3846 39.512C62.2566 39.832 62.1286 40.184 62.0006 40.568C61.9046 40.952 61.8246 41.336 61.7606 41.72C61.7286 41.944 61.6966 42.168 61.6646 42.392C61.6326 42.584 61.5846 42.792 61.5206 43.016L61.0886 44.888C61.0566 44.92 61.0726 44.968 61.1366 45.032C61.2006 45.064 61.2486 45.08 61.2806 45.08Z" fill="#638C6D"/>
</svg>
